<svg viewBox="0 0 60 60" fill="none" xmlns="http://www.w3.org/2000/svg" class="ToncoinWidget__logo"><path d="M30 60c16.569 0 30-13.431 30-30C60 13.431 46.57 0 30 0 13.432 0 0 13.431 0 30c0 16.569 13.432 30 30 30Z" fill="#08C"></path><path fill-rule="evenodd" clip-rule="evenodd" d="M21.648 19.83h16.826c.596 0 1.19.088 1.812.378.745.347 1.14.895 1.417 1.3.022.031.042.064.06.097.326.58.494 1.205.494 1.878a4.02 4.02 0 0 1-.493 1.943l-.01.018-10.63 18.26a1.304 1.304 0 0 1-2.26-.008L18.43 25.474l-.009-.014c-.239-.394-.608-1.003-.673-1.788a3.559 3.559 0 0 1 .466-2.073c.363-.628.91-1.13 1.566-1.436.705-.33 1.419-.332 1.87-.332Zm7.044 2.61h-7.044c-.462 0-.64.028-.764.086a.932.932 0 0 0-.413.379.95.95 0 0 0-.124.553c.01.111.054.238.321.678l.017.028 8.007 13.982V22.439Zm2.608 0v15.775l8.193-14.073c.093-.168.155-.411.155-.66a1.16 1.16 0 0 0-.135-.555 2.101 2.101 0 0 0-.207-.266.383.383 0 0 0-.122-.089c-.194-.09-.392-.133-.71-.133h-7.173Z" fill="#fff"></path></svg>
